<svg width="18" height="20" viewBox="0 0 18 20" fill="none" xmlns="http://www.w3.org/2000/svg">
<path d="M3.98438 10H6V12.0156H3.98438V10ZM18 4V18.0156C18 18.5469 17.7969 19 17.3906 19.375C17.0156 19.7812 16.5469 19.9844 15.9844 19.9844H2.01562C1.45312 19.9844 0.96875 19.7812 0.5625 19.375C0.1875 19 0 18.5469 0 18.0156V4C0 3.4375 0.1875 2.96875 0.5625 2.59375C0.96875 2.1875 1.45312 1.98438 2.01562 1.98438H3V0.015625H5.01562V1.98438H12.9844V0.015625H15V1.98438H15.9844C16.5469 1.98438 17.0156 2.1875 17.3906 2.59375C17.7969 2.96875 18 3.4375 18 4ZM2.01562 6.01562H15.9844V4H2.01562V6.01562ZM15.9844 18.0156V7.98438H2.01562V18.0156H15.9844ZM12 12.0156V10H14.0156V12.0156H12ZM8.01562 12.0156V10H9.98438V12.0156H8.01562ZM3.98438 13.9844H6V16H3.98438V13.9844ZM12 16V13.9844H14.0156V16H12ZM8.01562 16V13.9844H9.98438V16H8.01562Z" fill="#6E8396"/>
</svg>
