<svg width="20" height="14" viewBox="0 0 20 14" fill="none" xmlns="http://www.w3.org/2000/svg">
<path d="M6.67969 7.82031H8.78906V5.32031H11.2109V7.82031H13.3203L10 11.1797L6.67969 7.82031ZM16.1328 5.35938C17.2266 5.4375 18.138 5.88021 18.8672 6.6875C19.6224 7.46875 20 8.40625 20 9.5C20 10.2552 19.8047 10.9583 19.4141 11.6094C19.0495 12.2344 18.5417 12.7422 17.8906 13.1328C17.2656 13.4974 16.5755 13.6797 15.8203 13.6797H5C4.08854 13.6797 3.24219 13.4583 2.46094 13.0156C1.70573 12.5469 1.10677 11.9349 0.664062 11.1797C0.221354 10.3984 0 9.5651 0 8.67969C0 7.82031 0.195312 7.02604 0.585938 6.29688C0.976562 5.56771 1.51042 4.98177 2.1875 4.53906C2.86458 4.07031 3.61979 3.79688 4.45312 3.71875C4.97396 2.67708 5.72917 1.85677 6.71875 1.25781C7.70833 0.632812 8.80208 0.320312 10 0.320312C11.5104 0.320312 12.8385 0.802083 13.9844 1.76562C15.1302 2.72917 15.8464 3.92708 16.1328 5.35938ZM15.8203 12C16.5234 12 17.1094 11.7656 17.5781 11.2969C18.0729 10.8021 18.3203 10.2161 18.3203 9.53906C18.3203 8.86198 18.099 8.28906 17.6562 7.82031C17.2135 7.32552 16.6667 7.0651 16.0156 7.03906L14.7266 6.96094L14.4922 5.71094C14.2839 4.61719 13.75 3.73177 12.8906 3.05469C12.0573 2.35156 11.0938 2 10 2C9.14062 2 8.34635 2.22135 7.61719 2.66406C6.88802 3.10677 6.32812 3.70573 5.9375 4.46094L5.50781 5.28125L4.64844 5.35938C3.78906 5.4375 3.07292 5.80208 2.5 6.45312C1.95312 7.07812 1.67969 7.82031 1.67969 8.67969C1.67969 9.59115 2.00521 10.3724 2.65625 11.0234C3.30729 11.6745 4.08854 12 5 12H15.8203Z" fill="#2C3B48"/>
</svg>
