<svg width="18" height="18" viewBox="0 0 18 18" fill="none" xmlns="http://www.w3.org/2000/svg">
<path d="M6 14.0156H3.98438V6.98438H6V14.0156ZM9.98438 14.0156H8.01562V3.98438H9.98438V14.0156ZM14.0156 14.0156H12V9.98438H14.0156V14.0156ZM15.9844 15.9844H2.01562V2.01562H15.9844V16.0781V15.9844ZM15.9844 0H2.01562C1.45312 0 0.96875 0.203125 0.5625 0.609375C0.1875 0.984375 0 1.45312 0 2.01562V15.9844C0 16.5469 0.1875 17.0312 0.5625 17.4375C0.96875 17.8125 1.45312 18 2.01562 18H15.9844C16.5469 18 17.0156 17.8125 17.3906 17.4375C17.7969 17.0312 18 16.5469 18 15.9844V2.01562C18 1.45312 17.7969 0.984375 17.3906 0.609375C17.0156 0.203125 16.5469 0 15.9844 0Z" fill="#173C6C"/>
</svg>
