<svg width="18" height="18" viewBox="0 0 18 18" fill="none" xmlns="http://www.w3.org/2000/svg">
<path d="M2.01562 0C1.45312 0 0.96875 0.203125 0.5625 0.609375C0.1875 0.984375 0 1.45312 0 2.01562V15.9844C0 16.5469 0.1875 17.0312 0.5625 17.4375C0.96875 17.8125 1.45312 18 2.01562 18H15.9844C16.5469 18 17.0156 17.8125 17.3906 17.4375C17.7969 17.0312 18 16.5469 18 15.9844V2.01562C18 1.45312 17.7969 0.984375 17.3906 0.609375C17.0156 0.203125 16.5469 0 15.9844 0H2.01562ZM2.01562 2.01562H15.9844V15.9844H2.01562V2.01562ZM3.98438 3.98438V6H14.0156V3.98438H3.98438ZM3.98438 8.01562V9.98438H14.0156V8.01562H3.98438ZM3.98438 12V14.0156H11.0156V12H3.98438Z" fill="#4D5962"/>
</svg>
