<svg width="64" height="47" viewBox="0 0 64 47" fill="none" xmlns="http://www.w3.org/2000/svg">
<path d="M11.3425 2.86078C11.0896 3.1115 10.7617 3.22948 10.4063 3.22948C9.49206 3.22948 9.10549 2.59532 9.10183 1.95194C9.09816 1.30487 9.51771 0.646741 10.4063 0.646741C10.7397 0.646741 11.0567 0.773943 11.3095 1.02466L10.9999 1.32515C10.8386 1.16661 10.6206 1.09102 10.4063 1.09102C9.81268 1.09102 9.55435 1.53715 9.55802 1.95009C9.56168 2.36119 9.79802 2.78889 10.4063 2.78889C10.6206 2.78889 10.8643 2.7004 11.0255 2.53817L11.3425 2.86078Z" fill="#173C6C"/>
<path d="M13.9495 3.17233H12.1065V0.694667H13.9495V1.14817H12.5681V1.71781H13.9001V2.15287H12.5681V2.71145H13.9495V3.17233Z" fill="#173C6C"/>
<path d="M16.5108 0.690982H16.9761V3.17233H16.6867V3.17602L15.3932 1.50212V3.17233H14.9279V0.69467H15.3053L16.5108 2.2303V0.690982Z" fill="#173C6C"/>
<path d="M18.5481 1.11867H17.7676V0.694667H19.7939V1.11867H19.0116V3.17233H18.5481V1.11867Z" fill="#173C6C"/>
<path d="M22.7692 3.17233H22.2178L21.4996 2.3446H21.0525V3.17233H20.589V0.690982C20.9793 0.690982 21.3695 0.69467 21.7597 0.69467C22.3405 0.698357 22.6465 1.08733 22.6465 1.51503C22.6465 1.85423 22.4926 2.19896 22.0236 2.29298L22.7692 3.13915V3.17233ZM21.0525 1.12974V1.92244H21.7597C22.0547 1.92244 22.1811 1.72334 22.1811 1.52609C22.1811 1.32883 22.051 1.12974 21.7597 1.12974H21.0525Z" fill="#173C6C"/>
<path d="M25.8892 1.9464C25.8819 2.58794 25.4917 3.22763 24.6269 3.22763C23.7622 3.22763 23.361 2.60084 23.361 1.95009C23.361 1.29933 23.775 0.644888 24.6269 0.644888C25.4734 0.644888 25.8966 1.29933 25.8892 1.9464ZM23.8172 1.95746C23.8281 2.36488 24.0462 2.79994 24.6251 2.79994C25.2059 2.79994 25.4239 2.36119 25.4312 1.95377C25.4386 1.53714 25.2059 1.06889 24.6251 1.06889C24.0462 1.06889 23.808 1.54083 23.8172 1.95746Z" fill="#173C6C"/>
<path d="M30.1287 1.91137C30.1397 2.53816 29.7586 3.17048 28.8975 3.17048H27.9302V0.692822H28.8975C29.7421 0.694666 30.1177 1.29933 30.1287 1.91137ZM28.3901 2.72251H28.8957C29.4545 2.72251 29.6762 2.31141 29.6652 1.90953C29.6542 1.52424 29.4289 1.13895 28.8957 1.13895H28.3901V2.72251Z" fill="#173C6C"/>
<path d="M32.7798 3.17233H30.9385V0.694667H32.7798V1.14817H31.3984V1.71781H32.7321V2.15287H31.3984V2.71145H32.7798V3.17233Z" fill="#173C6C"/>
<path d="M35.3355 0.694667H34.8738V3.17233H35.3355V0.694667Z" fill="#173C6C"/>
<path d="M37.8986 0.690982H38.3639V3.17233H38.0745V3.17602L36.781 1.50212V3.17233H36.3157V0.69467H36.6931L37.8986 2.2303V0.690982Z" fill="#173C6C"/>
<path d="M41.7552 1.9464C41.7478 2.58794 41.3576 3.22763 40.4928 3.22763C39.6281 3.22763 39.2269 2.60084 39.2269 1.95009C39.2269 1.29933 39.6427 0.644888 40.4928 0.644888C41.3393 0.644888 41.7607 1.29933 41.7552 1.9464ZM39.6831 1.95746C39.6941 2.36488 39.9121 2.79994 40.491 2.79994C41.07 2.79994 41.2898 2.36119 41.2971 1.95377C41.3045 1.53714 41.0718 1.06889 40.491 1.06889C39.9102 1.06889 39.6721 1.54083 39.6831 1.95746Z" fill="#173C6C"/>
<path d="M43.8309 3.18154H43.3491L42.3249 0.694667H42.8452L43.5872 2.62296L44.3329 0.694667H44.8532L43.8309 3.18154Z" fill="#173C6C"/>
<path d="M47.3962 2.70408H46.1082L45.8975 3.17048H45.3937L46.4984 0.692822H47.0041L48.1088 3.17048H47.6032L47.3962 2.70408ZM46.7531 1.21453L46.2951 2.26901H47.2093L46.7531 1.21453Z" fill="#173C6C"/>
<path d="M49.5507 3.7309C49.6533 3.86917 49.9263 3.8876 49.9684 3.74565C50.0069 3.61108 49.8035 3.52628 49.6698 3.62214L49.5672 3.54102L49.6753 3.21288C48.9333 3.11333 48.6163 2.53632 48.6127 1.95377C48.609 1.3067 49.0267 0.648575 49.9171 0.648575C50.2506 0.648575 50.5675 0.775776 50.8203 1.02649L50.5107 1.32698C50.3495 1.16844 50.1315 1.09286 49.9171 1.09286C49.3235 1.09286 49.0652 1.53898 49.0689 1.95193C49.0725 2.36303 49.307 2.79072 49.9171 2.79072C50.1315 2.79072 50.3733 2.70223 50.5364 2.54L50.8533 2.86262C50.6133 3.10043 50.311 3.21657 49.9812 3.23132L49.9318 3.38986C50.2561 3.40092 50.3257 3.62029 50.2945 3.79727C50.2066 4.20837 49.5764 4.2434 49.362 3.89313L49.5507 3.7309Z" fill="#173C6C"/>
<path d="M53.2643 2.70408H51.9764L51.7657 3.17048H51.2619L52.3666 0.69282H52.8723L53.977 3.17048H53.4714L53.2643 2.70408ZM51.9837 0.322277C52.068 0.110274 52.209 -0.0427348 52.4491 0.0107266C52.6176 0.04944 52.7825 0.241163 52.8961 0.014413L53.1837 0.152675C53.0775 0.432887 52.8997 0.517688 52.7294 0.471601C52.5498 0.421827 52.3959 0.206137 52.2548 0.471601L51.9837 0.322277ZM52.6213 1.21453L52.1632 2.26901H53.0775L52.6213 1.21453Z" fill="#173C6C"/>
<path d="M56.9725 1.9464C56.9652 2.58794 56.5749 3.22763 55.7102 3.22763C54.8454 3.22763 54.4442 2.60084 54.4442 1.95009C54.4442 1.29933 54.8601 0.644888 55.7102 0.644888C56.5566 0.644888 56.9798 1.29933 56.9725 1.9464ZM54.9004 1.95746C54.9114 2.36488 55.1294 2.79994 55.7084 2.79994C56.2873 2.79994 56.5071 2.36119 56.5145 1.95377C56.5218 1.53714 56.2891 1.06889 55.7084 1.06889C55.1276 1.06889 54.8894 1.54083 54.9004 1.95746Z" fill="#173C6C"/>
<path d="M36.2406 9.89188V35.0833H31.5706V32.0397C30.1159 34.3127 27.78 35.0833 25.4844 35.0833C19.9331 35.0833 15.7596 31.3852 15.7596 25.145C15.7596 18.5969 19.8562 15.2067 25.3689 15.2067C27.3604 15.2067 30.4603 16.2851 31.5706 18.2503V9.89188H36.2406ZM19.4714 25.2648C19.4714 28.5776 21.844 30.8506 24.8303 30.8506C27.7781 30.8506 30.3046 28.6937 30.3046 25.2648C30.3046 21.952 27.7781 19.7177 24.8303 19.7177C21.8458 19.7177 19.4714 21.8359 19.4714 25.2648Z" fill="#009FB5"/>
<path d="M48.4386 27.8107C48.7446 30.1611 50.7745 31.8553 54.0668 31.8553C55.789 31.8553 58.0479 31.2009 59.1197 30.0837L62.106 33.0499C60.1145 35.1294 56.8607 36.1322 53.9898 36.1322C47.4823 36.1322 43.6147 32.0876 43.6147 26.0004C43.6147 20.2228 47.5189 16.0621 53.6454 16.0621C59.9625 16.0621 63.9051 19.9906 63.1778 27.8107H48.4386ZM58.6983 23.9209C58.3924 21.4561 56.4778 20.2228 53.7975 20.2228C51.271 20.2228 49.2044 21.4561 48.5137 23.9209H58.6983Z" fill="#009FB5"/>
<path d="M46.6926 31.8332C49.1311 30.7123 50.1864 28.4282 50.529 26.358H50.5437C50.5529 26.2843 50.5529 26.2031 50.562 26.1294C50.6298 25.6482 50.6738 25.1782 50.6738 24.7449C50.6738 24.1421 50.6115 23.5596 50.5125 22.9899C49.9464 19.3656 47.6545 16.7995 44.5674 15.7118C43.4847 15.2417 42.303 15.1127 41.1396 15.1127L41.1213 15.1145C41.1213 15.1145 41.1084 15.1127 41.1029 15.1127C40.8703 15.1127 40.6357 15.1292 40.4012 15.1403V15.179C35.4693 15.5145 31.5706 19.0965 31.5706 24.7449C31.5706 30.6773 35.2457 34.2979 41.1414 34.2979C43.4773 34.2979 45.9268 35.4925 45.9268 38.1121C45.9268 40.7317 43.8218 42.1955 41.1414 42.1955C38.4611 42.1955 36.2039 40.5769 36.2039 38.1121H31.5706C31.5706 43.2352 35.6671 46.5867 41.1414 46.5867C46.6157 46.5867 50.5968 43.3514 50.5968 38.1121C50.5968 35.6842 49.831 33.4112 46.6926 31.8332ZM41.1414 30.0229C38.4244 30.0229 36.2039 28.0577 36.2039 24.7449C36.2039 21.4395 38.4153 19.4025 41.1231 19.3914C41.7735 19.3933 42.3946 19.5168 42.9643 19.7435C42.9827 19.7509 43.0046 19.7546 43.0248 19.762C43.1475 19.8117 43.2556 19.8873 43.3711 19.9482C44.943 20.7667 46.0422 22.4535 46.0422 24.7449C46.0422 25.3238 45.9506 25.8437 45.8242 26.3359C45.2233 28.6458 43.3491 30.0229 41.1414 30.0229Z" fill="#173C6C"/>
<path d="M36.2039 37.3803H31.5706V37.8098H36.2039V37.3803Z" fill="#173C6C"/>
<path d="M36.2039 36.7129H31.5706V37.1425H36.2039V36.7129Z" fill="#173C6C"/>
<path d="M36.2039 36.0474H31.5706V36.477H36.2039V36.0474Z" fill="#009FB5"/>
<path d="M36.2039 35.3801H31.5706V35.8096H36.2039V35.3801Z" fill="#009FB5"/>
<path d="M59.6212 29.6208L59.3206 29.9258L62.3007 32.8999L62.6013 32.595L59.6212 29.6208Z" fill="#009FB5"/>
<path d="M60.0866 29.148L59.7859 29.4529L62.766 32.4271L63.0667 32.1221L60.0866 29.148Z" fill="#009FB5"/>
<path d="M60.5532 28.6738L60.2526 28.9788L63.2327 31.9529L63.5333 31.648L60.5532 28.6738Z" fill="#173C6C"/>
<path d="M61.0199 28.1997L60.7193 28.5047L63.6994 31.4788L64 31.1739L61.0199 28.1997Z" fill="#173C6C"/>
<path d="M36.2039 7.20037H31.5706V7.6299H36.2039V7.20037Z" fill="#173C6C"/>
<path d="M36.2039 7.86771H31.5706V8.29724H36.2039V7.86771Z" fill="#173C6C"/>
<path d="M36.2039 8.53322H31.5706V8.96275H36.2039V8.53322Z" fill="#009FB5"/>
<path d="M36.2039 9.20055H31.5706V9.63009H36.2039V9.20055Z" fill="#009FB5"/>
<path d="M20.5047 30.3805L16.7325 28.5315C16.4338 29.1675 15.8549 29.7795 15.1825 30.3234C15.0305 30.4506 14.8766 30.5741 14.697 30.6865C14.6018 30.7529 14.501 30.8119 14.4039 30.8746C13.2442 31.4977 11.7089 31.8553 10.4521 31.8553C7.15981 31.8553 5.12985 30.1593 4.82389 27.8107H19.563C20.2904 19.9906 16.3477 16.0621 10.0307 16.0621C3.90601 16.0621 0 20.2228 0 26.0004C0 32.0876 3.86754 36.1101 10.3751 36.1322C12.3464 36.1378 14.4735 35.6363 16.269 34.6685C16.2983 34.6685 16.9633 34.2592 17.1557 34.1265C17.6027 33.8113 18.0241 33.4721 18.4235 33.1052C18.4436 33.0849 18.4711 33.072 18.4913 33.0499L18.4894 33.0481C19.3212 32.2627 20.0357 31.3778 20.5047 30.3805ZM10.1828 20.221C12.8631 20.221 14.7776 21.4543 15.0836 23.9191H4.89901C5.58787 21.4543 7.6563 20.221 10.1828 20.221Z" fill="#173C6C"/>
<path d="M29.4765 28.3047C28.4982 29.9086 26.7632 30.8488 24.8303 30.8488C22.892 30.8488 21.2266 29.8809 20.2849 28.3047H16.2103C17.3884 32.5946 20.9554 35.0833 25.4825 35.0833C27.7781 35.0833 30.1141 34.3127 31.5687 32.0397V28.3047H29.4765Z" fill="#009FB5"/>
<path d="M36.2406 9.89188H31.5706L31.5706 10.1444H36.2406L36.2406 9.89188Z" fill="#009FB5"/>
</svg>
